<svg width="338" height="326" viewBox="0 0 338 326" fill="none" xmlns="http://www.w3.org/2000/svg">
<path d="M241.33 276.94H240.33C224.5 262.37 180.69 251.94 129.12 251.94C64.2201 251.94 11.6101 268.53 11.6101 288.94C11.6101 309.35 64.2201 325.94 129.12 325.94C172.3 325.94 210.04 318.6 230.47 307.66C233.98 307.83 237.6 307.92 241.3 307.92C274.24 307.92 300.95 300.92 300.95 292.4C300.95 283.88 274.27 276.94 241.33 276.94Z" fill="#37474F"/>
<path opacity="0.5" d="M241.33 276.94H240.33C224.5 262.37 180.69 251.94 129.12 251.94C64.2201 251.94 11.6101 268.53 11.6101 288.94C11.6101 309.35 64.2201 325.94 129.12 325.94C172.3 325.94 210.04 318.6 230.47 307.66C233.98 307.83 237.6 307.92 241.3 307.92C274.24 307.92 300.95 300.92 300.95 292.4C300.95 283.88 274.27 276.94 241.33 276.94Z" fill="white"/>
<path d="M205 127.56C205 127.56 208.35 157.03 223.75 164.4C239.15 171.77 247.87 160.4 247.87 150C247.87 139.6 265.28 129.91 278.01 129.91C290.74 129.91 294.42 146.99 289.01 161.05C283.6 175.11 277 191.86 251.91 199.9C226.82 207.94 212.06 197.22 212.06 197.22C212.06 197.22 215.75 204.59 212.06 205.59C208.37 206.59 198 195.21 198 195.21C198 195.21 202.69 205.26 197.33 201.91C191.97 198.56 186.28 178.8 186.28 178.8C186.28 178.8 186.61 185.8 182.28 186.5C177.95 187.2 175.58 172.1 175.58 172.1L203.38 120.87L205 127.56Z" fill="white"/>
<mask id="mask0_152_18" style="mask-type:luminance" maskUnits="userSpaceOnUse" x="175" y="120" width="117" height="86">
<path d="M205 127.56C205 127.56 208.35 157.03 223.75 164.4C239.15 171.77 247.87 160.4 247.87 150C247.87 139.6 265.28 129.91 278.01 129.91C290.74 129.91 294.42 146.99 289.01 161.05C283.6 175.11 277 191.86 251.91 199.9C226.82 207.94 212.06 197.22 212.06 197.22C212.06 197.22 215.75 204.59 212.06 205.59C208.37 206.59 198 195.21 198 195.21C198 195.21 202.69 205.26 197.33 201.91C191.97 198.56 186.28 178.8 186.28 178.8C186.28 178.8 186.61 185.8 182.28 186.5C177.95 187.2 175.58 172.1 175.58 172.1L203.38 120.87L205 127.56Z" fill="white"/>
</mask>
<g mask="url(#mask0_152_18)">
<path d="M264.87 177.89C262.748 177.89 260.714 178.733 259.213 180.233C257.713 181.734 256.87 183.768 256.87 185.89C256.87 188.012 257.713 190.047 259.213 191.547C260.714 193.047 262.748 193.89 264.87 193.89H265.25C267.802 192.338 270.206 190.554 272.43 188.56C272.732 187.699 272.887 186.793 272.89 185.88C272.889 184.829 272.68 183.788 272.276 182.817C271.872 181.846 271.281 180.965 270.536 180.223C269.792 179.481 268.908 178.893 267.935 178.492C266.963 178.092 265.922 177.888 264.87 177.89Z" fill="#37474F"/>
<path d="M247.27 154.84C245.03 163.47 236.79 170.62 223.78 164.4C223.214 164.126 222.663 163.823 222.13 163.49C221.388 166.293 221.421 169.244 222.227 172.029C223.032 174.814 224.578 177.328 226.701 179.302C228.824 181.276 231.444 182.636 234.28 183.237C237.116 183.838 240.062 183.658 242.803 182.715C245.544 181.771 247.978 180.101 249.843 177.882C251.709 175.663 252.937 172.979 253.396 170.117C253.854 167.255 253.527 164.321 252.448 161.63C251.369 158.94 249.579 156.593 247.27 154.84Z" fill="#37474F"/>
<path d="M217.08 199.38C217.104 197.907 216.837 196.443 216.295 195.073C215.753 193.702 214.946 192.452 213.921 191.394C212.896 190.335 211.672 189.489 210.32 188.903C208.968 188.317 207.514 188.004 206.04 187.98C204.567 187.957 203.103 188.223 201.733 188.765C200.362 189.307 199.112 190.114 198.054 191.139C196.995 192.164 196.149 193.388 195.563 194.74C194.977 196.092 194.664 197.547 194.64 199.02C195.339 200.15 196.253 201.132 197.33 201.91C202.69 205.26 198 195.21 198 195.21C198 195.21 208.38 206.6 212.06 205.59C215.74 204.58 212.06 197.22 212.06 197.22C213.629 198.259 215.305 199.124 217.06 199.8C217.06 199.66 217.08 199.52 217.08 199.38Z" fill="#37474F"/>
<path opacity="0.2" d="M287.4 145.19C281.27 152.99 271.24 185.85 245.62 193.1C220 200.35 196.62 183.63 196.62 183.63C196.62 183.63 200.52 179.73 208.32 166.36C210.49 162.636 212.344 158.735 213.86 154.7C206.86 143.35 205.05 127.56 205.05 127.56L203.38 120.87L175.58 172.1C175.58 172.1 177.93 187.17 182.28 186.5C186.63 185.83 186.28 178.8 186.28 178.8C186.28 178.8 191.97 198.56 197.33 201.91C202.69 205.26 198 195.21 198 195.21C198 195.21 208.38 206.6 212.06 205.59C215.74 204.58 212.06 197.22 212.06 197.22C212.06 197.22 226.8 207.94 251.91 199.9C277.02 191.86 283.73 175.12 289.09 161.05C291.138 155.73 291.865 149.993 291.21 144.33C289.54 143.94 288.21 144.15 287.4 145.19Z" fill="black"/>
</g>
<path d="M205 127.56C205 127.56 208.35 157.03 223.75 164.4C239.15 171.77 247.87 160.4 247.87 150C247.87 139.6 265.28 129.91 278.01 129.91C290.74 129.91 294.42 146.99 289.01 161.05C283.6 175.11 277 191.86 251.91 199.9C226.82 207.94 212.06 197.22 212.06 197.22C212.06 197.22 215.75 204.59 212.06 205.59C208.37 206.59 198 195.21 198 195.21C198 195.21 202.69 205.26 197.33 201.91C191.97 198.56 186.28 178.8 186.28 178.8C186.28 178.8 186.61 185.8 182.28 186.5C177.95 187.2 175.58 172.1 175.58 172.1L203.38 120.87L205 127.56Z" stroke="#263238" stroke-width="1.20355" stroke-linecap="round" stroke-linejoin="round"/>
<path d="M281.22 171.43C280.159 171.43 279.142 171.009 278.392 170.259C277.641 169.508 277.22 168.491 277.22 167.43V104.43H285.22V167.43C285.22 168.491 284.799 169.508 284.048 170.259C283.298 171.009 282.281 171.43 281.22 171.43Z" fill="white" stroke="#263238" stroke-width="1.20355" stroke-linecap="round" stroke-linejoin="round"/>
<path d="M336.83 1.31006H226.32V109.14H336.83V1.31006Z" fill="#263238" stroke="#263238" stroke-width="1.20355" stroke-linecap="round" stroke-linejoin="round"/>
<path d="M262.35 24.5401V25.1201H256.35V34.5201H263.46V35.1301H255.71V14.8201H263.46V15.4301H256.35V24.5401H262.35Z" fill="white"/>
<path d="M269.78 14.8201C272.78 14.8201 273.96 16.5901 273.96 19.3801V21.2001C273.96 23.7001 272.96 25.0601 270.74 25.4701C273 25.8201 273.96 27.3001 273.96 29.5301V32.7201C273.899 33.5603 274.09 34.3996 274.51 35.1301H273.81C273.428 34.3871 273.259 33.5532 273.32 32.7201V29.5301C273.32 26.5301 271.52 25.7601 268.88 25.7601H266.38V35.1301H265.74V14.8201H269.78ZM268.88 25.1501C271.69 25.1501 273.32 24.4301 273.32 21.2901V19.4301C273.32 16.9701 272.32 15.4301 269.75 15.4301H266.38V25.1501H268.88Z" fill="white"/>
<path d="M280.8 14.8201C283.8 14.8201 284.98 16.5901 284.98 19.3801V21.2001C284.98 23.7001 283.98 25.0601 281.76 25.4701C284.03 25.8201 284.98 27.3001 284.98 29.5301V32.7201C284.922 33.5613 285.117 34.4007 285.54 35.1301H284.84C284.458 34.3871 284.289 33.5532 284.35 32.7201V29.5301C284.35 26.5301 282.55 25.7601 279.91 25.7601H277.41V35.1301H276.77V14.8201H280.8ZM279.91 25.1501C282.72 25.1501 284.35 24.4301 284.35 21.2901V19.4301C284.35 16.9701 283.35 15.4301 280.78 15.4301H277.41V25.1501H279.91Z" fill="white"/>
<path d="M287.77 19.8102C287.77 16.4402 289.25 14.6702 292.07 14.6702C294.89 14.6702 296.42 16.4402 296.42 19.8102V30.1402C296.42 33.5102 294.94 35.2802 292.07 35.2802C289.2 35.2802 287.77 33.5102 287.77 30.1402V19.8102ZM288.41 30.1702C288.41 33.1702 289.66 34.7002 292.07 34.7002C294.48 34.7002 295.78 33.1602 295.78 30.1702V19.7802C295.78 16.7802 294.5 15.2602 292.07 15.2602C289.64 15.2602 288.41 16.7902 288.41 19.7802V30.1702Z" fill="white"/>
<path d="M302.74 14.8201C305.74 14.8201 306.92 16.5901 306.92 19.3801V21.2001C306.92 23.7001 305.92 25.0601 303.7 25.4701C305.97 25.8201 306.92 27.3001 306.92 29.5301V32.7201C306.862 33.5613 307.057 34.4007 307.48 35.1301H306.78C306.398 34.3871 306.228 33.5532 306.29 32.7201V29.5301C306.29 26.5301 304.49 25.7601 301.85 25.7601H299.35V35.1301H298.71V14.8201H302.74ZM301.85 25.1501C304.66 25.1501 306.29 24.4301 306.29 21.2901V19.4301C306.29 16.9701 305.29 15.4301 302.72 15.4301H299.35V25.1501H301.85Z" fill="white"/>
<path d="M279.18 149.38C279.18 149.38 293.35 141.62 299.24 146.7C305.13 151.78 302.71 159.81 298.17 161.7C293.63 163.59 283.73 165.98 278.38 164.11C273.03 162.24 268.48 154.46 279.18 149.38Z" fill="white" stroke="#263238" stroke-width="1.20355" stroke-linecap="round" stroke-linejoin="round"/>
<path d="M273 128.9C273 128.9 290.75 119.19 298.12 125.56C305.49 131.93 302.47 141.96 296.78 144.31C291.09 146.66 278.7 149.67 272 147.31C265.3 144.95 259.62 135.27 273 128.9Z" fill="white" stroke="#263238" stroke-width="1.20355" stroke-linecap="round" stroke-linejoin="round"/>
<path d="M240.36 80.6801L254.57 47.0701H263.1V80.6801H266.8V87.7801H263.1V96.7801H255.43V87.7801H240.36V80.6801ZM255.43 80.6801V62.0001L247.54 80.6901L255.43 80.6801Z" fill="white"/>
<path d="M269.71 59C269.71 51 273.9 46.49 281.57 46.49C289.24 46.49 293.44 51.04 293.44 59V84.86C293.44 92.86 289.25 97.37 281.57 97.37C273.89 97.37 269.71 92.82 269.71 84.86V59ZM277.52 85.36C277.52 88.91 279.09 90.26 281.57 90.26C284.05 90.26 285.62 88.91 285.62 85.36V58.51C285.62 54.96 284.06 53.61 281.57 53.61C279.08 53.61 277.52 54.96 277.52 58.51V85.36Z" fill="white"/>
<path d="M296.64 80.6801L310.85 47.0701H319.37V80.6801H323.07V87.7801H319.37V96.7801H311.7V87.7801H296.64V80.6801ZM311.7 80.6801V62.0001L303.81 80.6901L311.7 80.6801Z" fill="white"/>
<path d="M248.9 156C248.9 156 245.22 137.25 251.58 126.19C257.94 115.13 273.68 122.19 278.71 133.9C283.74 145.61 280.71 158 271 158C261.29 158 259.62 142.59 259.62 142.59" fill="white"/>
<path d="M248.9 156C248.9 156 245.22 137.25 251.58 126.19C257.94 115.13 273.68 122.19 278.71 133.9C283.74 145.61 280.71 158 271 158C261.29 158 259.62 142.59 259.62 142.59" stroke="#263238" stroke-width="1.20355" stroke-linecap="round" stroke-linejoin="round"/>
<path d="M275.87 153.66C275.87 153.66 276.87 160.05 274.17 164.59C273.939 164.986 273.574 165.285 273.141 165.434C272.707 165.582 272.235 165.57 271.81 165.4C271.496 165.277 271.221 165.072 271.013 164.807C270.806 164.541 270.673 164.224 270.63 163.89C270.38 161.89 269.69 157.79 268.08 155.1C267.673 154.422 267.458 153.646 267.458 152.855C267.458 152.064 267.673 151.288 268.08 150.61C268.354 150.154 268.726 149.765 269.168 149.471C269.611 149.177 270.114 148.986 270.64 148.91C274.26 148.3 275.56 149.76 275.87 153.66Z" fill="white" stroke="#263238" stroke-width="1.20355" stroke-linecap="round" stroke-linejoin="round"/>
<path d="M101.39 183.41V254.16C101.39 254.16 80.67 269.02 71.29 272.92C61.91 276.82 47.05 267.45 38.06 274.92C29.07 282.39 32.2 294 43.14 295.2C43.14 295.2 43.14 301.46 48.62 304.2C50.3244 304.994 52.1706 305.438 54.0495 305.507C55.9285 305.576 57.8021 305.267 59.56 304.6C59.56 304.6 60.34 313.98 71.68 313.2C83.02 312.42 85.75 303.42 92 294.43C98.25 285.44 102.17 277.23 111.55 276.06C120.93 274.89 126.79 272.93 126.79 261.6C126.79 254.6 119.79 254.17 118.98 247.14C118.17 240.11 118.98 186.14 118.98 186.14L101.39 183.41Z" fill="white"/>
<mask id="mask1_152_18" style="mask-type:luminance" maskUnits="userSpaceOnUse" x="32" y="183" width="95" height="131">
<path d="M101.39 183.41V254.16C101.39 254.16 80.67 269.02 71.29 272.92C61.91 276.82 47.05 267.45 38.06 274.92C29.07 282.39 32.2 294 43.14 295.2C43.14 295.2 43.14 301.46 48.62 304.2C50.3244 304.994 52.1706 305.438 54.0495 305.507C55.9285 305.576 57.8021 305.267 59.56 304.6C59.56 304.6 60.34 313.98 71.68 313.2C83.02 312.42 85.75 303.42 92 294.43C98.25 285.44 102.17 277.23 111.55 276.06C120.93 274.89 126.79 272.93 126.79 261.6C126.79 254.6 119.79 254.17 118.98 247.14C118.17 240.11 118.98 186.14 118.98 186.14L101.39 183.41Z" fill="white"/>
</mask>
<g mask="url(#mask1_152_18)">
<path d="M109.3 262.57C112.133 262.57 114.43 260.273 114.43 257.44C114.43 254.607 112.133 252.31 109.3 252.31C106.467 252.31 104.17 254.607 104.17 257.44C104.17 260.273 106.467 262.57 109.3 262.57Z" fill="#37474F"/>
<path d="M108.66 200C108.66 199.452 108.552 198.91 108.343 198.404C108.133 197.898 107.826 197.439 107.439 197.051C107.051 196.664 106.592 196.357 106.086 196.148C105.58 195.938 105.038 195.83 104.49 195.83C103.903 195.831 103.322 195.957 102.788 196.2C102.253 196.443 101.776 196.798 101.39 197.24V202.76C101.776 203.203 102.253 203.557 102.788 203.8C103.322 204.044 103.903 204.17 104.49 204.17C105.596 204.17 106.657 203.731 107.439 202.949C108.221 202.167 108.66 201.106 108.66 200Z" fill="#37474F"/>
<path d="M115.71 219.59C114.052 219.656 112.485 220.36 111.335 221.556C110.185 222.752 109.543 224.346 109.543 226.005C109.543 227.664 110.185 229.258 111.335 230.454C112.485 231.65 114.052 232.355 115.71 232.42C116.729 232.415 117.731 232.161 118.63 231.68C118.63 228.15 118.63 224.27 118.63 220.33C117.73 219.852 116.729 219.599 115.71 219.59Z" fill="#37474F"/>
<path opacity="0.2" d="M126.79 261.59C126.79 254.59 119.79 254.16 118.98 247.13C118.17 240.1 118.98 186.13 118.98 186.13L101.39 183.39V206.1C105.09 208.43 109.9 210.61 114.71 210.34V251C114.71 251 118.06 259.91 115.83 267.15C113.6 274.39 96.33 274.39 90.76 281.08C85.19 287.77 81.29 301.69 75.76 307.82C73.9199 309.823 71.8679 311.62 69.64 313.18C70.3328 313.22 71.0272 313.22 71.72 313.18C83.05 312.39 85.79 303.4 92.04 294.41C98.29 285.42 102.21 277.21 111.59 276.04C120.97 274.87 126.79 272.92 126.79 261.59Z" fill="black"/>
</g>
<path d="M101.39 183.41V254.16C101.39 254.16 80.67 269.02 71.29 272.92C61.91 276.82 47.05 267.45 38.06 274.92C29.07 282.39 32.2 294 43.14 295.2C43.14 295.2 43.14 301.46 48.62 304.2C50.3244 304.994 52.1706 305.438 54.0495 305.507C55.9285 305.576 57.8021 305.267 59.56 304.6C59.56 304.6 60.34 313.98 71.68 313.2C83.02 312.42 85.75 303.42 92 294.43C98.25 285.44 102.17 277.23 111.55 276.06C120.93 274.89 126.79 272.93 126.79 261.6C126.79 254.6 119.79 254.17 118.98 247.14C118.17 240.11 118.98 186.14 118.98 186.14L101.39 183.41Z" stroke="#263238" stroke-width="1.20355" stroke-linecap="round" stroke-linejoin="round"/>
<path d="M59.5601 304.59C59.5601 304.59 59.1701 290.9 76.0001 285" stroke="#263238" stroke-width="1.20355" stroke-linecap="round" stroke-linejoin="round"/>
<path d="M43.14 295.2C43.14 295.2 43.14 284.26 61.52 279.96" stroke="#263238" stroke-width="1.20355" stroke-linecap="round" stroke-linejoin="round"/>
<path d="M61.3201 302.36C61.3201 302.36 55.8901 305.87 54.3201 310.88C54.1806 311.321 54.205 311.797 54.3887 312.222C54.5724 312.646 54.9032 312.99 55.3201 313.19C55.6206 313.343 55.9568 313.411 56.293 313.388C56.6292 313.365 56.953 313.252 57.2301 313.06C58.8601 311.96 62.4201 309.72 65.5001 309.15C66.2821 309.003 67.0095 308.646 67.6047 308.117C68.1999 307.589 68.6407 306.909 68.8801 306.15C69.0315 305.649 69.0714 305.121 68.9972 304.603C68.9229 304.084 68.7362 303.589 68.4501 303.15C66.4101 300 64.4501 300 61.3201 302.36Z" fill="white" stroke="#263238" stroke-width="1.20355" stroke-linecap="round" stroke-linejoin="round"/>
<path d="M45.1501 295.68C45.1501 295.68 39.7201 299.2 38.1001 304.2C37.9585 304.641 37.9818 305.118 38.1657 305.543C38.3497 305.968 38.6817 306.312 39.1001 306.51C39.4006 306.661 39.7357 306.729 40.0713 306.708C40.4069 306.687 40.7308 306.577 41.0101 306.39C42.6401 305.28 46.2001 303.05 49.2801 302.47C50.0625 302.324 50.7904 301.967 51.3858 301.439C51.9812 300.91 52.4216 300.23 52.6601 299.47C52.8115 298.969 52.8515 298.441 52.7772 297.923C52.7029 297.404 52.5162 296.909 52.2301 296.47C50.2301 293.34 48.2801 293.34 45.1501 295.68Z" fill="white" stroke="#263238" stroke-width="1.20355" stroke-linecap="round" stroke-linejoin="round"/>
<path d="M32.2501 284.56C32.2501 284.56 26.8201 288.07 25.1901 293.08C25.0506 293.521 25.075 293.997 25.2587 294.422C25.4424 294.846 25.7732 295.19 26.1901 295.39C26.4915 295.539 26.8271 295.606 27.1626 295.583C27.4982 295.56 27.8217 295.449 28.1001 295.26C29.7301 294.15 33.3001 291.92 36.3701 291.34C37.1534 291.195 37.8823 290.84 38.478 290.311C39.0737 289.782 39.5136 289.101 39.7501 288.34C39.9036 287.839 39.9446 287.311 39.8703 286.792C39.7959 286.273 39.6081 285.778 39.3201 285.34C37.3301 282.21 35.3701 282.21 32.2501 284.56Z" fill="white" stroke="#263238" stroke-width="1.20355" stroke-linecap="round" stroke-linejoin="round"/>
<path d="M163 183.41V254.16C163 254.16 183.72 269.02 193.1 272.92C202.48 276.82 217.33 267.45 226.32 274.92C235.31 282.39 232.19 294.07 221.24 295.24C221.24 295.24 221.24 301.5 215.77 304.24C214.064 305.034 212.216 305.478 210.336 305.546C208.455 305.615 206.58 305.307 204.82 304.64C204.82 304.64 204.04 314.02 192.71 313.24C181.38 312.46 178.63 303.46 172.38 294.47C166.13 285.48 162.22 277.27 152.84 276.1C143.46 274.93 137.59 272.97 137.59 261.64C137.59 254.64 144.59 254.21 145.41 247.18C146.23 240.15 145.41 186.18 145.41 186.18L163 183.41Z" fill="white"/>
<mask id="mask2_152_18" style="mask-type:luminance" maskUnits="userSpaceOnUse" x="137" y="183" width="95" height="131">
<path d="M163 183.41V254.16C163 254.16 183.72 269.02 193.1 272.92C202.48 276.82 217.33 267.45 226.32 274.92C235.31 282.39 232.19 294.07 221.24 295.24C221.24 295.24 221.24 301.5 215.77 304.24C214.064 305.034 212.216 305.478 210.336 305.546C208.455 305.615 206.58 305.307 204.82 304.64C204.82 304.64 204.04 314.02 192.71 313.24C181.38 312.46 178.63 303.46 172.38 294.47C166.13 285.48 162.22 277.27 152.84 276.1C143.46 274.93 137.59 272.97 137.59 261.64C137.59 254.64 144.59 254.21 145.41 247.18C146.23 240.15 145.41 186.18 145.41 186.18L163 183.41Z" fill="white"/>
</mask>
<g mask="url(#mask2_152_18)">
<path d="M154.85 253.59C157.683 253.59 159.98 251.293 159.98 248.46C159.98 245.627 157.683 243.33 154.85 243.33C152.017 243.33 149.72 245.627 149.72 248.46C149.72 251.293 152.017 253.59 154.85 253.59Z" fill="#37474F"/>
<path d="M145.73 213.67C146.51 214.157 147.406 214.425 148.324 214.447C149.243 214.468 150.151 214.243 150.952 213.794C151.754 213.345 152.421 212.689 152.882 211.894C153.343 211.099 153.583 210.195 153.576 209.277C153.568 208.358 153.314 207.458 152.84 206.671C152.366 205.883 151.689 205.238 150.88 204.802C150.071 204.366 149.16 204.155 148.241 204.192C147.323 204.229 146.432 204.511 145.66 205.01C145.68 207.78 145.71 210.7 145.73 213.67Z" fill="#37474F"/>
<path d="M163 220.52C161.384 220.973 159.961 221.941 158.947 223.278C157.933 224.615 157.384 226.247 157.384 227.925C157.384 229.603 157.933 231.235 158.947 232.572C159.961 233.909 161.384 234.877 163 235.33V220.52Z" fill="#37474F"/>
<path opacity="0.2" d="M145.44 186.15C145.44 186.15 145.59 196.4 145.69 208.54C150.771 209.097 155.905 208.962 160.95 208.14C160.95 208.14 158.16 249.91 158.72 255.48C159.28 261.05 184.34 275.54 191.59 277.21C198.84 278.88 211.52 277.99 218.32 281.66C222.48 283.91 224.47 289.84 225.38 294.13C232.85 290.83 234.09 281.27 226.38 274.88C217.38 267.45 202.54 276.83 193.16 272.88C183.78 268.93 163 254.16 163 254.16V183.41L145.44 186.15Z" fill="black"/>
</g>
<path d="M163 183.41V254.16C163 254.16 183.72 269.02 193.1 272.92C202.48 276.82 217.33 267.45 226.32 274.92C235.31 282.39 232.19 294.07 221.24 295.24C221.24 295.24 221.24 301.5 215.77 304.24C214.064 305.034 212.216 305.478 210.336 305.546C208.455 305.615 206.58 305.307 204.82 304.64C204.82 304.64 204.04 314.02 192.71 313.24C181.38 312.46 178.63 303.46 172.38 294.47C166.13 285.48 162.22 277.27 152.84 276.1C143.46 274.93 137.59 272.97 137.59 261.64C137.59 254.64 144.59 254.21 145.41 247.18C146.23 240.15 145.41 186.18 145.41 186.18L163 183.41Z" stroke="#263238" stroke-width="1.20355" stroke-linecap="round" stroke-linejoin="round"/>
<path d="M204.85 304.59C204.85 304.59 205.24 290.9 188.44 285.04" stroke="#263238" stroke-width="1.20355" stroke-linecap="round" stroke-linejoin="round"/>
<path d="M221.27 295.2C221.27 295.2 221.27 284.26 202.9 279.96" stroke="#263238" stroke-width="1.20355" stroke-linecap="round" stroke-linejoin="round"/>
<path d="M203.09 302.36C203.09 302.36 208.52 305.87 210.14 310.88C210.281 311.315 210.263 311.786 210.089 312.21C209.915 312.633 209.597 312.98 209.19 313.19C208.89 313.343 208.553 313.411 208.217 313.388C207.881 313.365 207.557 313.252 207.28 313.06C205.65 311.96 202.08 309.72 199.01 309.15C198.227 309.006 197.498 308.65 196.902 308.121C196.306 307.592 195.867 306.911 195.63 306.15C195.477 305.65 195.436 305.122 195.508 304.604C195.581 304.085 195.766 303.589 196.05 303.15C198 300 200 300 203.09 302.36Z" fill="white" stroke="#263238" stroke-width="1.20355" stroke-linecap="round" stroke-linejoin="round"/>
<path d="M219.26 295.68C219.26 295.68 224.69 299.2 226.31 304.2C226.455 304.635 226.439 305.108 226.265 305.532C226.091 305.956 225.769 306.303 225.36 306.51C225.06 306.662 224.724 306.731 224.389 306.71C224.053 306.689 223.729 306.578 223.45 306.39C221.82 305.28 218.25 303.05 215.18 302.47C214.396 302.327 213.667 301.971 213.071 301.442C212.475 300.913 212.035 300.231 211.8 299.47C211.647 298.969 211.605 298.441 211.68 297.922C211.754 297.404 211.942 296.908 212.23 296.47C214.18 293.34 216.13 293.34 219.26 295.68Z" fill="white" stroke="#263238" stroke-width="1.20355" stroke-linecap="round" stroke-linejoin="round"/>
<path d="M232.17 284.56C232.17 284.56 237.6 288.07 239.22 293.08C239.357 293.521 239.332 293.997 239.149 294.42C238.965 294.844 238.636 295.188 238.22 295.39C237.917 295.54 237.58 295.607 237.243 295.584C236.905 295.562 236.58 295.45 236.3 295.26C234.67 294.15 231.11 291.92 228.03 291.34C227.247 291.197 226.519 290.841 225.925 290.312C225.33 289.783 224.893 289.101 224.66 288.34C224.504 287.84 224.461 287.312 224.534 286.793C224.607 286.274 224.793 285.778 225.08 285.34C227.09 282.21 229 282.21 232.17 284.56Z" fill="white" stroke="#263238" stroke-width="1.20355" stroke-linecap="round" stroke-linejoin="round"/>
<path d="M32.72 221.17C32.72 221.17 32.51 212.54 34.83 209.81C37.15 207.08 39.83 219.7 39.66 221.38C39.49 223.06 36.51 226 32.72 221.17Z" fill="white" stroke="#263238" stroke-width="1.20355" stroke-linecap="round" stroke-linejoin="round"/>
<path d="M47.8701 218.22C47.8701 218.22 47.6601 209.6 49.9701 206.87C52.2801 204.14 55.0201 216.75 54.8101 218.43C54.6001 220.11 51.6501 223.06 47.8701 218.22Z" fill="white" stroke="#263238" stroke-width="1.20355" stroke-linecap="round" stroke-linejoin="round"/>
<path d="M31.45 229.86C31.45 229.86 28.71 217.34 35.37 216.55C42.03 215.76 47.51 239.26 47.51 239.26C47.51 239.26 42.81 214.2 51.03 213.42C59.25 212.64 60.03 236.13 60.03 238.09C60.03 240.05 53.03 248.66 42.41 251.01C31.79 253.36 31.45 229.86 31.45 229.86Z" fill="white" stroke="#263238" stroke-width="1.20355" stroke-linecap="round" stroke-linejoin="round"/>
<path d="M22.8401 227.06C22.8401 227.06 22.6301 218.43 24.9401 215.7C27.2501 212.97 29.9901 225.59 29.7801 227.27C29.5701 228.95 26.6201 231.9 22.8401 227.06Z" fill="white" stroke="#263238" stroke-width="1.20355" stroke-linecap="round" stroke-linejoin="round"/>
<path d="M63.1701 113.59C63.1701 113.59 53.3801 121.81 47.9001 139.03C42.4201 156.25 40.4601 164.09 45.9001 162.92C51.3401 161.75 53.3401 155.09 53.3401 155.09C53.3401 155.09 46.6801 174.66 50.2101 176.23C53.7401 177.8 58.4301 174.23 58.4301 174.23C58.4301 174.23 56.9001 191.5 60.0001 196.59C63.1001 201.68 64.3001 201.68 64.3001 201.68V233C64.3001 233 54.9101 230.65 47.0801 234.56C39.2501 238.47 38.4601 244.35 38.4601 244.35C38.4601 244.35 34.9401 225.56 27.1101 222.82C19.2801 220.08 19.2801 237.3 23.5801 247.09C27.8801 256.88 41.2001 261.19 42.3801 261.19C43.5601 261.19 40.0301 264.32 40.0301 264.32L50.6001 261.58C50.6001 261.58 45.5101 267.45 49.0301 267.45C52.5501 267.45 64.0001 261.58 64.0001 261.58C64.0001 261.58 60.0901 266.28 64.7801 266.28C69.4701 266.28 76.1401 259.28 76.1401 259.28C76.1401 259.28 76.1401 262.8 80.4401 258.5C84.7401 254.2 94.1501 254.97 96.1001 229.5C98.0501 204.03 96.1001 171.95 96.1001 171.95C96.1001 171.95 86.6601 96.75 63.1701 113.59Z" fill="white"/>
<mask id="mask3_152_18" style="mask-type:luminance" maskUnits="userSpaceOnUse" x="20" y="111" width="77" height="157">
<path d="M63.1701 113.59C63.1701 113.59 53.3801 121.81 47.9001 139.03C42.4201 156.25 40.4601 164.09 45.9001 162.92C51.3401 161.75 53.3401 155.09 53.3401 155.09C53.3401 155.09 46.6801 174.66 50.2101 176.23C53.7401 177.8 58.4301 174.23 58.4301 174.23C58.4301 174.23 56.9001 191.5 60.0001 196.59C63.1001 201.68 64.3001 201.68 64.3001 201.68V233C64.3001 233 54.9101 230.65 47.0801 234.56C39.2501 238.47 38.4601 244.35 38.4601 244.35C38.4601 244.35 34.9401 225.56 27.1101 222.82C19.2801 220.08 19.2801 237.3 23.5801 247.09C27.8801 256.88 41.2001 261.19 42.3801 261.19C43.5601 261.19 40.0301 264.32 40.0301 264.32L50.6001 261.58C50.6001 261.58 45.5101 267.45 49.0301 267.45C52.5501 267.45 64.0001 261.58 64.0001 261.58C64.0001 261.58 60.0901 266.28 64.7801 266.28C69.4701 266.28 76.1401 259.28 76.1401 259.28C76.1401 259.28 76.1401 262.8 80.4401 258.5C84.7401 254.2 94.1501 254.97 96.1001 229.5C98.0501 204.03 96.1001 171.95 96.1001 171.95C96.1001 171.95 86.6601 96.75 63.1701 113.59Z" fill="white"/>
</mask>
<g mask="url(#mask3_152_18)">
<path d="M89.6806 176.797C92.2563 170.625 89.3405 163.533 83.1682 160.958C76.9958 158.382 69.9042 161.298 67.3286 167.47C64.753 173.643 67.6687 180.734 73.841 183.31C80.0134 185.885 87.105 182.97 89.6806 176.797Z" fill="#37474F"/>
<path d="M59.1801 251.66C56.1987 251.67 53.3259 252.78 51.1117 254.776C48.8975 256.773 47.4976 259.516 47.1801 262.48L50.6801 261.58C50.6801 261.58 45.5901 267.45 49.1101 267.45C52.6301 267.45 64.0001 261.58 64.0001 261.58C64.0001 261.58 60.0901 266.28 64.7801 266.28C66.8301 266.28 69.2401 264.94 71.3201 263.43C71.2339 260.271 69.9157 257.272 67.6471 255.073C65.3786 252.873 62.3397 251.648 59.1801 251.66Z" fill="#37474F"/>
<path d="M94.9079 227.086C98.0939 219.325 94.3854 210.451 86.6248 207.265C78.8641 204.079 69.99 207.788 66.804 215.548C63.618 223.309 67.3264 232.183 75.0871 235.369C82.8477 238.555 91.7218 234.847 94.9079 227.086Z" fill="#37474F"/>
<path d="M45.9401 162.92C50.6901 161.92 52.7901 156.77 53.2701 155.42C51.892 159.545 50.7502 163.745 49.8501 168C52.5124 166.946 54.7456 165.032 56.1943 162.562C57.6429 160.092 58.2237 157.209 57.8442 154.371C57.4647 151.532 56.1467 148.903 54.1001 146.9C52.0535 144.898 49.3958 143.638 46.5501 143.32C42.1401 157.54 40.9401 164 45.9401 162.92Z" fill="#37474F"/>
<path opacity="0.2" d="M63.1701 113.59C63.1701 113.59 58.0501 117.91 53.1701 126.81C53.2203 137.893 55.4034 148.862 59.6001 159.12C70.7401 185.3 85.7801 192.54 85.7801 192.54C85.7801 192.54 89.1201 223.73 82.9901 240.44C77.2201 256.19 60.5701 263.03 39.9901 260.51C40.7731 260.824 41.5879 261.052 42.4201 261.19C43.5901 261.19 40.0701 264.32 40.0701 264.32L50.6401 261.58C50.6401 261.58 45.5501 267.45 49.0701 267.45C52.5901 267.45 64.0001 261.58 64.0001 261.58C64.0001 261.58 60.0901 266.28 64.7801 266.28C69.4701 266.28 76.1401 259.28 76.1401 259.28C76.1401 259.28 76.1401 262.8 80.4401 258.5C84.7401 254.2 94.1501 254.97 96.1001 229.5C98.0501 204.03 96.1001 171.95 96.1001 171.95C96.1001 171.95 86.6601 96.75 63.1701 113.59Z" fill="black"/>
</g>
<path d="M63.1701 113.59C63.1701 113.59 53.3801 121.81 47.9001 139.03C42.4201 156.25 40.4601 164.09 45.9001 162.92C51.3401 161.75 53.3401 155.09 53.3401 155.09C53.3401 155.09 46.6801 174.66 50.2101 176.23C53.7401 177.8 58.4301 174.23 58.4301 174.23C58.4301 174.23 56.9001 191.5 60.0001 196.59C63.1001 201.68 64.3001 201.68 64.3001 201.68V233C64.3001 233 54.9101 230.65 47.0801 234.56C39.2501 238.47 38.4601 244.35 38.4601 244.35C38.4601 244.35 34.9401 225.56 27.1101 222.82C19.2801 220.08 19.2801 237.3 23.5801 247.09C27.8801 256.88 41.2001 261.19 42.3801 261.19C43.5601 261.19 40.0301 264.32 40.0301 264.32L50.6001 261.58C50.6001 261.58 45.5101 267.45 49.0301 267.45C52.5501 267.45 64.0001 261.58 64.0001 261.58C64.0001 261.58 60.0901 266.28 64.7801 266.28C69.4701 266.28 76.1401 259.28 76.1401 259.28C76.1401 259.28 76.1401 262.8 80.4401 258.5C84.7401 254.2 94.1501 254.97 96.1001 229.5C98.0501 204.03 96.1001 171.95 96.1001 171.95C96.1001 171.95 86.6601 96.75 63.1701 113.59Z" stroke="#263238" stroke-width="1.20355" stroke-linecap="round" stroke-linejoin="round"/>
<path d="M69.58 74.7802C69.58 74.7802 58.38 92.0002 38.14 97.1702C17.9 102.34 0.240046 100.62 0.670046 101.91C1.10005 103.2 7.99005 107.51 7.99005 107.51C7.99005 107.51 1.53005 107.07 2.40005 109.23C3.27005 111.39 9.29005 121.29 29.53 126.45C49.77 131.61 62.2601 104.92 66.1301 93.2902C70.0001 81.6602 73 73.0502 69.58 74.7802Z" fill="white"/>
<mask id="mask4_152_18" style="mask-type:luminance" maskUnits="userSpaceOnUse" x="0" y="74" width="72" height="54">
<path d="M69.58 74.7802C69.58 74.7802 58.38 92.0002 38.14 97.1702C17.9 102.34 0.240046 100.62 0.670046 101.91C1.10005 103.2 7.99005 107.51 7.99005 107.51C7.99005 107.51 1.53005 107.07 2.40005 109.23C3.27005 111.39 9.29005 121.29 29.53 126.45C49.77 131.61 62.2601 104.92 66.1301 93.2902C70.0001 81.6602 73 73.0502 69.58 74.7802Z" fill="white"/>
</mask>
<g mask="url(#mask4_152_18)">
<path d="M9.31006 101.11C9.56065 104.054 10.4343 106.911 11.8731 109.491C13.3118 112.072 15.2828 114.317 17.6552 116.078C20.0277 117.838 22.7474 119.074 25.634 119.704C28.5206 120.334 31.508 120.342 34.3982 119.729C37.2883 119.116 40.0152 117.896 42.3978 116.149C44.7804 114.402 46.7643 112.168 48.2179 109.596C49.6716 107.024 50.5617 104.173 50.8293 101.23C51.0969 98.288 50.7358 95.3224 49.7701 92.5303C46.1036 94.5591 42.1962 96.1181 38.1401 97.1703C28.6907 99.4695 19.0298 100.79 9.31006 101.11Z" fill="#37474F"/>
</g>
<path d="M69.58 74.7802C69.58 74.7802 58.38 92.0002 38.14 97.1702C17.9 102.34 0.240046 100.62 0.670046 101.91C1.10005 103.2 7.99005 107.51 7.99005 107.51C7.99005 107.51 1.53005 107.07 2.40005 109.23C3.27005 111.39 9.29005 121.29 29.53 126.45C49.77 131.61 62.2601 104.92 66.1301 93.2902C70.0001 81.6602 73 73.0502 69.58 74.7802Z" stroke="#263238" stroke-width="1.20355" stroke-linecap="round" stroke-linejoin="round"/>
<path d="M195.4 73.1001C195.4 73.1001 206.6 90.3301 226.84 95.5001C247.08 100.67 264.74 98.9401 264.31 100.23C263.88 101.52 256.98 105.83 256.98 105.83C256.98 105.83 263.44 105.4 262.58 107.55C261.72 109.7 255.69 119.61 235.45 124.78C215.21 129.95 202.72 103.25 198.85 91.6201C194.98 79.9901 192 71.3801 195.4 73.1001Z" fill="white"/>
<mask id="mask5_152_18" style="mask-type:luminance" maskUnits="userSpaceOnUse" x="193" y="72" width="72" height="54">
<path d="M195.4 73.1001C195.4 73.1001 206.6 90.3301 226.84 95.5001C247.08 100.67 264.74 98.9401 264.31 100.23C263.88 101.52 256.98 105.83 256.98 105.83C256.98 105.83 263.44 105.4 262.58 107.55C261.72 109.7 255.69 119.61 235.45 124.78C215.21 129.95 202.72 103.25 198.85 91.6201C194.98 79.9901 192 71.3801 195.4 73.1001Z" fill="white"/>
</mask>
<g mask="url(#mask5_152_18)">
<path d="M239.48 98C237.856 102.109 237.84 106.68 239.433 110.801C241.027 114.922 244.114 118.292 248.08 120.24C258.38 115.17 261.94 109.18 262.58 107.56C263.44 105.41 256.98 105.84 256.98 105.84C256.98 105.84 263.88 101.53 264.31 100.24C264.64 99.22 253.88 100.06 239.48 98Z" fill="#37474F"/>
<path opacity="0.2" d="M220.55 106.2C221.04 102.08 220.26 97.1301 219.23 92.8501C209.696 88.464 201.479 81.6541 195.4 73.1001C191.96 71.3801 194.97 79.9901 198.85 91.6201C202.73 103.25 215.21 129.95 235.45 124.78C220.83 125 219.44 115.67 220.55 106.2Z" fill="black"/>
</g>
<path d="M195.4 73.1001C195.4 73.1001 206.6 90.3301 226.84 95.5001C247.08 100.67 264.74 98.9401 264.31 100.23C263.88 101.52 256.98 105.83 256.98 105.83C256.98 105.83 263.44 105.4 262.58 107.55C261.72 109.7 255.69 119.61 235.45 124.78C215.21 129.95 202.72 103.25 198.85 91.6201C194.98 79.9901 192 71.3801 195.4 73.1001Z" stroke="#263238" stroke-width="1.20355" stroke-linecap="round" stroke-linejoin="round"/>
<path d="M87.6601 52.38C87.6601 52.38 73.8801 54.97 66.5601 52.38C59.2401 49.79 64.4101 44.63 61.3901 40.76C58.3701 36.89 49.3901 43.76 48.4701 56.26C47.5501 68.76 61.8201 75.64 76.4701 76.93L93.6901 52.38H87.6601Z" fill="#37474F" stroke="#263238" stroke-width="1.20355" stroke-linecap="round" stroke-linejoin="round"/>
<path d="M71.1501 53.3302C69.641 53.1979 68.1516 52.896 66.7101 52.4302C63.589 54.4764 61.1169 57.3712 59.5846 60.7742C58.0523 64.1772 57.5234 67.9469 58.0601 71.6402C59.1349 72.2551 60.2433 72.8093 61.3801 73.3002C60.7001 70.6302 58.7701 59.5002 71.1501 53.3302Z" fill="#263238"/>
<path d="M62.39 46.1899C56.07 47.6199 51.5 50.1899 48.73 53.9699C48.62 54.7099 48.53 55.4699 48.47 56.2599C48.356 57.8954 48.5183 59.5384 48.95 61.1199C49.1814 59.5276 49.7288 57.9976 50.56 56.6199C52.73 53.0899 56.8 50.6199 62.69 49.2099C62.3875 48.2338 62.2854 47.2065 62.39 46.1899Z" fill="#263238"/>
<path d="M180.33 52.38C180.33 52.38 194.12 54.97 201.44 52.38C208.76 49.79 203.59 44.63 206.6 40.76C209.61 36.89 218.66 43.76 219.52 56.26C220.38 68.76 206.17 75.64 191.52 76.93L174.3 52.38H180.33Z" fill="#37474F" stroke="#263238" stroke-width="1.20355" stroke-linecap="round" stroke-linejoin="round"/>
<path d="M196.85 53.3302C198.359 53.1979 199.849 52.896 201.29 52.4302C204.411 54.4764 206.883 57.3712 208.416 60.7742C209.948 64.1772 210.477 67.9469 209.94 71.6402C208.865 72.2551 207.757 72.8093 206.62 73.3002C207.29 70.6302 209.23 59.5002 196.85 53.3302Z" fill="#263238"/>
<path d="M205.61 46.1899C211.92 47.6199 216.5 50.1899 219.27 53.9699C219.38 54.7099 219.47 55.4699 219.52 56.2599C219.637 57.8948 219.478 59.5378 219.05 61.1199C218.819 59.5276 218.271 57.9976 217.44 56.6199C215.27 53.0899 211.19 50.6199 205.31 49.2099C205.613 48.2338 205.715 47.2065 205.61 46.1899Z" fill="#263238"/>
<path d="M133.65 197.14C174.188 197.14 207.05 160.101 207.05 114.41C207.05 68.7197 174.188 31.6802 133.65 31.6802C93.1123 31.6802 60.25 68.7197 60.25 114.41C60.25 160.101 93.1123 197.14 133.65 197.14Z" fill="white"/>
<mask id="mask6_152_18" style="mask-type:luminance" maskUnits="userSpaceOnUse" x="60" y="31" width="148" height="167">
<path d="M133.65 197.14C174.188 197.14 207.05 160.101 207.05 114.41C207.05 68.7197 174.188 31.6802 133.65 31.6802C93.1123 31.6802 60.25 68.7197 60.25 114.41C60.25 160.101 93.1123 197.14 133.65 197.14Z" fill="white"/>
</mask>
<g mask="url(#mask6_152_18)">
<path d="M98.39 52.1402C100.215 52.144 102.012 51.6889 103.616 50.8167C105.219 49.9446 106.578 48.6833 107.566 47.149C108.555 45.6147 109.142 43.8564 109.274 42.0359C109.406 40.2153 109.078 38.3909 108.32 36.7302C101.625 39.5229 95.3958 43.3235 89.85 48.0002C90.8692 49.2895 92.1669 50.3315 93.6457 51.0485C95.1246 51.7654 96.7465 52.1386 98.39 52.1402Z" fill="#37474F"/>
<path d="M97.7501 170.19C97.7501 161.33 91.4301 154.19 83.6401 154.19C81.4346 154.231 79.2724 154.81 77.3415 155.877C75.4106 156.943 73.7693 158.465 72.5601 160.31C77.6615 169.009 84.3746 176.656 92.3401 182.84C94.08 181.23 95.4611 179.271 96.3932 177.092C97.3254 174.912 97.7877 172.56 97.7501 170.19Z" fill="#37474F"/>
<path d="M138.81 193.28C144.123 193.28 148.43 189.546 148.43 184.94C148.43 180.334 144.123 176.6 138.81 176.6C133.497 176.6 129.19 180.334 129.19 184.94C129.19 189.546 133.497 193.28 138.81 193.28Z" fill="#37474F"/>
<path d="M90.05 106.67C90.05 91.9201 79.95 79.8701 67.25 79.1201C62.5955 90.3016 60.2158 102.299 60.25 114.41C60.2508 120.975 60.9446 127.521 62.32 133.94C63.5318 134.153 64.7597 134.26 65.99 134.26C79.28 134.26 90.05 121.91 90.05 106.67Z" fill="#37474F"/>
<path d="M200.947 138.626C202.991 133.722 200.672 128.09 195.767 126.046C190.863 124.003 185.231 126.322 183.187 131.226C181.144 136.131 183.463 141.763 188.367 143.806C193.272 145.85 198.904 143.531 200.947 138.626Z" fill="#37474F"/>
<path d="M196.55 152.22C196.554 153.308 196.866 154.373 197.45 155.29C198.889 152.448 200.174 149.53 201.3 146.55C199.97 146.789 198.765 147.488 197.897 148.524C197.029 149.56 196.552 150.868 196.55 152.22Z" fill="#37474F"/>
<path d="M193.1 162.89C189.627 161.323 185.762 160.841 182.01 161.507C178.259 162.173 174.796 163.957 172.075 166.624C169.353 169.291 167.501 172.717 166.76 176.455C166.018 180.192 166.423 184.067 167.92 187.57C178.106 181.398 186.725 172.951 193.1 162.89Z" fill="#37474F"/>
<path d="M188.57 59.5503C185.513 62.9647 183.498 67.1829 182.763 71.7062C182.027 76.2295 182.602 80.8688 184.42 85.0757C186.237 89.2826 189.221 92.8812 193.019 95.4462C196.816 98.0113 201.269 99.4354 205.85 99.5503C203.576 84.967 197.63 71.202 188.57 59.5503Z" fill="#37474F"/>
<path opacity="0.2" d="M174 45.3303C179 52.6203 186.63 66.5103 192.11 89.4903C201.03 126.81 193.78 142.4 193.78 142.4L189.33 131.26C189.33 131.26 191 145.19 186 153.55C181 161.91 177.34 168.38 175.54 172.1C173.74 175.82 173.74 166.91 173.74 166.91C173.74 166.91 169.6 178.86 166.38 180.13C163.16 181.4 153.69 186.41 153.69 186.41L154.24 179.73C154.24 179.73 140.32 185.3 132.52 185.3C124.72 185.3 105.22 183.07 94.64 176.38C88.64 172.59 79.92 166.45 73.52 161.86C86.79 183.19 108.76 197.14 133.63 197.14C174.16 197.14 207.03 160.14 207.03 114.41C207.05 85.5403 193.92 60.1303 174 45.3303Z" fill="black"/>
</g>
<path d="M133.65 197.14C174.188 197.14 207.05 160.101 207.05 114.41C207.05 68.7197 174.188 31.6802 133.65 31.6802C93.1123 31.6802 60.25 68.7197 60.25 114.41C60.25 160.101 93.1123 197.14 133.65 197.14Z" stroke="#263238" stroke-width="1.20355" stroke-linecap="round" stroke-linejoin="round"/>
<path d="M128.94 35.2801C128.94 35.2801 128.55 34.1101 121.89 31.7601C115.23 29.4101 107.8 32.5401 111.71 29.4101C115.62 26.2801 128.94 25.8901 131.29 28.2401C133.64 30.5901 123.85 24.7101 123.85 20.8001C123.85 16.8901 135.21 18.8001 138.73 21.9701C140.597 23.5166 142.186 25.3698 143.43 27.4501C143.43 27.4501 143.04 12.9701 150.08 9.45009C157.12 5.93009 162.61 12.9801 159.48 16.8901C156.35 20.8001 149.69 27.4601 149.69 27.4601C149.69 27.4601 165.74 21.5901 164.96 28.2501C164.18 34.9101 148.12 35.2501 148.12 35.2501" fill="white"/>
<path d="M128.94 35.2801C128.94 35.2801 128.55 34.1101 121.89 31.7601C115.23 29.4101 107.8 32.5401 111.71 29.4101C115.62 26.2801 128.94 25.8901 131.29 28.2401C133.64 30.5901 123.85 24.7101 123.85 20.8001C123.85 16.8901 135.21 18.8001 138.73 21.9701C140.597 23.5166 142.186 25.3698 143.43 27.4501C143.43 27.4501 143.04 12.9701 150.08 9.45009C157.12 5.93009 162.61 12.9801 159.48 16.8901C156.35 20.8001 149.69 27.4601 149.69 27.4601C149.69 27.4601 165.74 21.5901 164.96 28.2501C164.18 34.9101 148.12 35.2501 148.12 35.2501" stroke="#263238" stroke-width="1.20355" stroke-linecap="round" stroke-linejoin="round"/>
<path d="M135.4 113.69C146.75 113.69 155.95 104.14 155.95 92.36C155.95 80.5798 146.75 71.03 135.4 71.03C124.051 71.03 114.85 80.5798 114.85 92.36C114.85 104.14 124.051 113.69 135.4 113.69Z" fill="#263238" stroke="#263238" stroke-width="1.20355" stroke-linecap="round" stroke-linejoin="round"/>
<path d="M135.4 110.84C146.75 110.84 155.95 101.639 155.95 90.29C155.95 78.9405 146.75 69.74 135.4 69.74C124.051 69.74 114.85 78.9405 114.85 90.29C114.85 101.639 124.051 110.84 135.4 110.84Z" fill="#37474F" stroke="#263238" stroke-width="1.20355" stroke-linecap="round" stroke-linejoin="round"/>
<path d="M139.54 100.228C145.03 97.9393 147.625 91.6333 145.336 86.1431C143.048 80.653 136.742 78.0577 131.252 80.3464C125.761 82.6351 123.166 88.9411 125.455 94.4313C127.744 99.9214 134.05 102.517 139.54 100.228Z" fill="#263238" stroke="#263238" stroke-width="1.20355" stroke-linecap="round" stroke-linejoin="round"/>
<path d="M110.54 52.9C110.54 52.9 99.1901 54.9 97.6201 59.56C96.0501 64.22 104.62 65.04 104.62 65.04C104.62 65.04 94.4401 73.65 99.1401 76.78C103.84 79.91 112.84 68.17 112.84 68.17C112.84 68.17 123.41 76.39 134.37 76.39C145.33 76.39 156.3 67.78 156.3 67.78C156.3 67.78 165.69 78.35 169.22 76.39C172.75 74.43 163 61.91 163 61.91C163 61.91 172 63.91 164.57 56.82C162.566 54.8006 160.047 53.3678 157.287 52.6769C154.526 51.9859 151.63 52.0631 148.91 52.9" fill="white"/>
<path d="M110.54 52.9C110.54 52.9 99.1901 54.9 97.6201 59.56C96.0501 64.22 104.62 65.04 104.62 65.04C104.62 65.04 94.4401 73.65 99.1401 76.78C103.84 79.91 112.84 68.17 112.84 68.17C112.84 68.17 123.41 76.39 134.37 76.39C145.33 76.39 156.3 67.78 156.3 67.78C156.3 67.78 165.69 78.35 169.22 76.39C172.75 74.43 163 61.91 163 61.91C163 61.91 172 63.91 164.57 56.82C162.566 54.8006 160.047 53.3678 157.287 52.6769C154.526 51.9859 151.63 52.0631 148.91 52.9" stroke="#263238" stroke-width="1.20355" stroke-linecap="round" stroke-linejoin="round"/>
<path d="M107 116.33C101.71 119.66 97.1755 124.061 93.6901 129.25C87.4201 138.25 89.3801 143.73 92.5101 144.12C95.6401 144.51 106.21 130.81 106.21 130.81C106.21 130.81 101.12 143.73 107.39 142.95C113.66 142.17 121.09 127.68 121.09 127.68C121.09 127.68 120.7 136.68 125.4 136.29C130.1 135.9 135.58 120.24 135.58 120.24C135.58 120.24 138.32 135.9 143.02 135.9C147.72 135.9 148.1 126.11 148.1 126.11C148.1 126.11 153.59 143.34 158.28 139.82C162.97 136.3 159.85 124.94 159.85 124.94C159.85 124.94 164.16 148.04 170.03 143.73C175.9 139.42 167.29 121.03 161.03 114.37" stroke="#263238" stroke-width="1.20355" stroke-linecap="round" stroke-linejoin="round"/>
<path d="M158.61 163.31C157.508 163.31 156.427 163.013 155.48 162.45C154.533 161.887 153.756 161.078 153.23 160.11C152.94 159.6 147.08 149.33 135.42 149.33C123.76 149.33 114.77 160.48 114.69 160.59C113.676 161.816 112.224 162.599 110.643 162.774C109.062 162.949 107.474 162.503 106.216 161.529C104.958 160.555 104.128 159.13 103.901 157.555C103.674 155.981 104.068 154.379 105 153.09C105.51 152.44 117.62 137.09 135.42 137.09C154.55 137.09 163.63 153.59 164 154.3C164.494 155.232 164.739 156.276 164.711 157.331C164.684 158.385 164.384 159.415 163.842 160.32C163.3 161.225 162.534 161.975 161.617 162.497C160.701 163.019 159.665 163.296 158.61 163.3V163.31Z" fill="#263238"/>
<mask id="mask7_152_18" style="mask-type:luminance" maskUnits="userSpaceOnUse" x="103" y="137" width="62" height="27">
<path d="M158.61 163.31C157.508 163.31 156.427 163.013 155.48 162.45C154.533 161.887 153.756 161.078 153.23 160.11C152.94 159.6 147.08 149.33 135.42 149.33C123.76 149.33 114.77 160.48 114.69 160.59C113.676 161.816 112.224 162.599 110.643 162.774C109.062 162.949 107.474 162.503 106.216 161.529C104.958 160.555 104.128 159.13 103.901 157.555C103.674 155.981 104.068 154.379 105 153.09C105.51 152.44 117.62 137.09 135.42 137.09C154.55 137.09 163.63 153.59 164 154.3C164.494 155.232 164.739 156.276 164.711 157.331C164.684 158.385 164.384 159.415 163.842 160.32C163.3 161.225 162.534 161.975 161.617 162.497C160.701 163.019 159.665 163.296 158.61 163.3V163.31Z" fill="white"/>
</mask>
<g mask="url(#mask7_152_18)">
<path d="M107.87 149.9L117.2 153.13L116.13 143.18C113.148 145.123 110.379 147.376 107.87 149.9Z" fill="white"/>
<path d="M155.06 144L154.39 155.09L163.53 153.47C161.265 149.855 158.401 146.653 155.06 144Z" fill="white"/>
<path d="M157.91 155.09L151.91 158.09C152.398 158.731 152.848 159.398 153.26 160.09C153.786 161.058 154.563 161.867 155.51 162.43C156.457 162.993 157.538 163.29 158.64 163.29C159.233 163.284 159.823 163.193 160.39 163.02L157.91 155.09Z" fill="white"/>
<path d="M114.69 160.59C115.318 159.839 115.986 159.121 116.69 158.44L109 154.3L107 162.25C108.272 162.922 109.741 163.123 111.147 162.82C112.553 162.516 113.808 161.727 114.69 160.59Z" fill="white"/>
</g>
<path d="M158.61 163.31C157.508 163.31 156.427 163.013 155.48 162.45C154.533 161.887 153.756 161.078 153.23 160.11C152.94 159.6 147.08 149.33 135.42 149.33C123.76 149.33 114.77 160.48 114.69 160.59C113.676 161.816 112.224 162.599 110.643 162.774C109.062 162.949 107.474 162.503 106.216 161.529C104.958 160.555 104.128 159.13 103.901 157.555C103.674 155.981 104.068 154.379 105 153.09C105.51 152.44 117.62 137.09 135.42 137.09C154.55 137.09 163.63 153.59 164 154.3C164.494 155.232 164.739 156.276 164.711 157.331C164.684 158.385 164.384 159.415 163.842 160.32C163.3 161.225 162.534 161.975 161.617 162.497C160.701 163.019 159.665 163.296 158.61 163.3V163.31Z" stroke="#263238" stroke-width="1.20355" stroke-linecap="round" stroke-linejoin="round"/>
<path d="M132.55 84.5601C132.55 85.7467 132.198 86.9068 131.539 87.8935C130.88 88.8802 129.943 89.6492 128.846 90.1033C127.75 90.5575 126.543 90.6763 125.38 90.4448C124.216 90.2133 123.147 89.6418 122.307 88.8027C121.468 87.9636 120.897 86.8945 120.665 85.7306C120.434 84.5667 120.553 83.3603 121.007 82.264C121.461 81.1676 122.23 80.2305 123.217 79.5712C124.203 78.912 125.363 78.5601 126.55 78.5601C128.141 78.5601 129.667 79.1922 130.793 80.3174C131.918 81.4426 132.55 82.9688 132.55 84.5601Z" fill="white"/>
</svg>
